<svg xmlns="http://www.w3.org/2000/svg" xmlns:cc="http://web.resource.org/cc/" xmlns:svg="http://www.w3.org/2000/svg" xmlns:xlink="http://www.w3.org/1999/xlink" id="svg1" width="1066.667" height="266.667"><metadata id="metadata1354"/><defs id="defs3"><linearGradient id="linearGradient2241"><stop id="stop2242" offset="0" style="stop-color:#63efff;stop-opacity:1"/><stop id="stop2243" offset="1" style="stop-color:#003ec3;stop-opacity:1"/></linearGradient><linearGradient id="linearGradient2177"><stop id="stop2178" offset="0" style="stop-color:#fff;stop-opacity:1"/><stop id="stop2179" offset="1" style="stop-color:#fff;stop-opacity:0"/></linearGradient><linearGradient id="linearGradient2166"><stop id="stop2167" offset="0" style="stop-color:#fff;stop-opacity:1"/><stop id="stop2168" offset="1" style="stop-color:#fff;stop-opacity:0"/></linearGradient><linearGradient id="linearGradient2158"><stop id="stop2159" offset="0" style="stop-color:red;stop-opacity:1"/><stop id="stop2160" offset="1" style="stop-color:#6b0000;stop-opacity:1"/></linearGradient><linearGradient id="linearGradient2240" x1=".451" x2=".697" y1=".234" y2=".359" spreadMethod="reflect" xlink:href="#linearGradient2158"/><linearGradient id="linearGradient2244" x1=".435" x2=".495" y1=".719" y2="-.175" xlink:href="#linearGradient2158"/><linearGradient id="linearGradient2245" x1=".8" x2=".157" y1=".711" y2=".883" xlink:href="#linearGradient2158"/><linearGradient id="linearGradient2246" x1=".453" x2=".766" y1=".313" y2=".305" xlink:href="#linearGradient2158"/><linearGradient id="linearGradient2258" x1=".523" x2=".86" y1=".039" y2=".953" xlink:href="#linearGradient2158"/></defs><path id="path2236" d="M 63.095265,25.215468 L 18.211048,75.372924 L 136.03197,243.90188 L 229.54067,67.347713 L 186.52667,17.190257 L 149.12317,5.1525249 L 83.667115,9.1651300 L 63.095265,25.215468 z" style="fill:url(#linearGradient2240);fill-opacity:1;fill-rule:evenodd;stroke:none;stroke-width:1pt;stroke-linecap:butt;stroke-linejoin:miter;stroke-opacity:1"/><path id="path2263" d="M 146.49105,7.2471256 C 134.98772,7.8872562 96.250463,9.4837370 84.747130,10.123868 C 43.274539,52.050616 40.734745,57.006349 21.966172,75.889387 C 22.848983,75.942723 21.700617,75.846909 22.604352,75.889387 C 60.359065,130.18986 98.525451,187.40114 136.28015,241.70160 C 97.578791,148.78153 169.68000,160.20144 129.10064,77.647396 C 129.85665,77.684485 128.51899,77.203068 129.26019,77.247849 C 125.93028,47.162977 190.68814,75.738129 146.49105,7.2471256 z" style="fill:#fff;fill-opacity:.39374998;fill-rule:evenodd;stroke:none;stroke-width:1pt;stroke-linecap:butt;stroke-linejoin:miter;stroke-opacity:1"/><path id="path2237" d="M 66.835547,135.56185 L 87.407473,89.417005 L 111.71976,151.61218 L 126.68110,191.73816 L 132.29169,233.87039 L 66.835547,135.56185 z" style="fill:url(#linearGradient2246);fill-opacity:1;fill-rule:evenodd;stroke:none;stroke-width:1pt;stroke-linecap:butt;stroke-linejoin:miter;stroke-opacity:1"/><path id="path2238" d="M 136.03197,235.87666 L 162.21439,91.423262 L 186.52667,73.366574 L 218.31961,75.372832 L 136.03197,235.87666 z" style="fill:url(#linearGradient2245);fill-opacity:1;fill-rule:evenodd;stroke:none;stroke-width:1pt;stroke-linecap:butt;stroke-linejoin:miter;stroke-opacity:1"/><path id="path2239" d="M 42.124087,63.571050 L 96.139143,59.322494 L 127.93214,59.322494 L 166.65598,55.191962 L 215.28048,69.354052 L 176.22677,23.799032 L 138.71326,11.879138 L 88.658587,17.662149 L 42.124087,63.571050 z" style="fill:url(#linearGradient2244);fill-opacity:1;fill-rule:evenodd;stroke:none;stroke-width:1pt;stroke-linecap:butt;stroke-linejoin:miter;stroke-opacity:1"/><path id="path2250" d="M 148.07097,6.2115833 L 82.850694,10.217358 L 62.189309,26.240433 L 17.381487,76.446078 L 135.12647,244.95546 L 228.72505,68.434549 L 185.65975,18.228899 L 148.07097,6.2115833 z M 145.08379,16.092483 L 177.94285,26.507484 L 215.53164,70.036851 L 133.63289,222.79021 L 30.325966,76.980186 L 69.657277,33.450820 L 87.829346,19.564154 L 145.08379,16.092483 z" style="fill:#000;fill-opacity:.25312498;fill-rule:evenodd;stroke:none;stroke-width:1pt;stroke-linecap:butt;stroke-linejoin:miter;stroke-opacity:1"/><path id="path2257" d="M 128.55133,77.379181 L 130.42147,205.78225 L 89.277693,95.435865 L 76.186476,113.49255 L 42.523334,75.372924 L 79.926757,65.341451 L 128.55133,77.379181 z" style="fill:url(#linearGradient2258);fill-opacity:1;fill-rule:evenodd;stroke:none;stroke-width:1pt;stroke-linecap:butt;stroke-linejoin:miter;stroke-opacity:1"/><text style="font-size:144px;font-style:normal;font-variant:normal;font-weight:400;font-stretch:normal;text-align:start;line-height:125%;writing-mode:lr-tb;text-anchor:start;fill:#000;fill-opacity:1;stroke:none;stroke-width:1px;stroke-linecap:butt;stroke-linejoin:miter;stroke-opacity:1;font-family:URW Palladio L" id="text8642" x="225.114" y="215.473" xml:space="preserve"><tspan id="tspan8644" x="225.114" y="215.473">JRuby</tspan></text></svg>